<svg width="42" height="42" viewBox="0 0 42 42" fill="none" xmlns="http://www.w3.org/2000/svg">
<rect width="42" height="42" rx="21" fill="#9DB2BC"/>
<path d="M21.392 15.536V27H20.032V18.576C20.032 18.464 20.0347 18.344 20.04 18.216C20.0507 18.088 20.0613 17.9573 20.072 17.824L16.136 24.992C16.0133 25.232 15.8267 25.352 15.576 25.352H15.352C15.1013 25.352 14.9147 25.232 14.792 24.992L10.776 17.792C10.808 18.0747 10.824 18.336 10.824 18.576V27H9.464V15.536H10.608C10.7467 15.536 10.8533 15.5493 10.928 15.576C11.0027 15.6027 11.0747 15.6773 11.144 15.8L15.104 22.856C15.168 22.984 15.2293 23.1173 15.288 23.256C15.352 23.3947 15.4107 23.536 15.464 23.68C15.5173 23.536 15.5733 23.3947 15.632 23.256C15.6907 23.112 15.7547 22.976 15.824 22.848L19.712 15.8C19.776 15.6773 19.8453 15.6027 19.92 15.576C20 15.5493 20.1093 15.536 20.248 15.536H21.392ZM32.3714 24.632C32.4567 24.632 32.5314 24.6667 32.5954 24.736L33.2114 25.4C32.742 25.944 32.1714 26.368 31.4994 26.672C30.8327 26.976 30.0247 27.128 29.0754 27.128C28.254 27.128 27.5074 26.9867 26.8354 26.704C26.1634 26.416 25.59 26.016 25.1154 25.504C24.6407 24.9867 24.2727 24.368 24.0114 23.648C23.75 22.928 23.6194 22.136 23.6194 21.272C23.6194 20.408 23.7554 19.616 24.0274 18.896C24.2994 18.176 24.6807 17.5573 25.1714 17.04C25.6674 16.5227 26.2594 16.1227 26.9474 15.84C27.6354 15.552 28.3954 15.408 29.2274 15.408C30.0434 15.408 30.7634 15.5387 31.3874 15.8C32.0114 16.0613 32.5607 16.416 33.0354 16.864L32.5234 17.576C32.4914 17.6293 32.4487 17.6747 32.3954 17.712C32.3474 17.744 32.2807 17.76 32.1954 17.76C32.0994 17.76 31.982 17.7093 31.8434 17.608C31.7047 17.5013 31.5234 17.384 31.2994 17.256C31.0754 17.128 30.7954 17.0133 30.4594 16.912C30.1234 16.8053 29.71 16.752 29.2194 16.752C28.6274 16.752 28.086 16.856 27.5954 17.064C27.1047 17.2667 26.6807 17.5627 26.3234 17.952C25.9714 18.3413 25.6967 18.816 25.4994 19.376C25.302 19.936 25.2034 20.568 25.2034 21.272C25.2034 21.9867 25.3047 22.624 25.5074 23.184C25.7154 23.744 25.9954 24.2187 26.3474 24.608C26.7047 24.992 27.1234 25.2853 27.6034 25.488C28.0887 25.6907 28.6114 25.792 29.1714 25.792C29.5127 25.792 29.8194 25.7733 30.0914 25.736C30.3687 25.6933 30.622 25.6293 30.8514 25.544C31.086 25.4587 31.302 25.352 31.4994 25.224C31.702 25.0907 31.902 24.9333 32.0994 24.752C32.19 24.672 32.2807 24.632 32.3714 24.632Z" fill="white"/>
</svg>
