<svg width="48" height="48" viewBox="0 0 48 48" fill="none" xmlns="http://www.w3.org/2000/svg">
<path d="M39.285 30.4426L45.75 24.0001L39.3075 17.5576L37.185 19.6801L39.9825 22.5001H29.7525C29.5399 21.3766 29.0871 20.3123 28.425 19.3801L35.5275 12.0001L35.595 15.9826L38.595 15.9301L38.43 6.84009L29.325 7.01259L29.3775 10.0126L33.3675 9.94509L26.25 17.3026C25.1511 16.5844 23.8923 16.1481 22.5847 16.0323C21.2771 15.9165 19.9611 16.1248 18.7532 16.6386C17.5453 17.1525 16.4826 17.9562 15.6592 18.9785C14.8358 20.0009 14.2771 21.2104 14.0325 22.5001H12.2775C11.9212 21.4283 11.1951 20.5184 10.2291 19.9332C9.26312 19.348 8.12039 19.1257 7.00549 19.3062C5.89059 19.4866 4.87633 20.058 4.1443 20.9181C3.41226 21.7781 3.01025 22.8707 3.01025 24.0001C3.01025 25.1295 3.41226 26.222 4.1443 27.0821C4.87633 27.9421 5.89059 28.5135 7.00549 28.694C8.12039 28.8745 9.26312 28.6522 10.2291 28.067C11.1951 27.4818 11.9212 26.5718 12.2775 25.5001H14.0325C14.2771 26.7898 14.8358 27.9993 15.6592 29.0217C16.4826 30.044 17.5453 30.8477 18.7532 31.3615C19.9611 31.8754 21.2771 32.0837 22.5847 31.9679C23.8923 31.852 25.1511 31.4158 26.25 30.6976L33.3525 38.0626L29.3625 37.9951L29.31 40.9951L38.415 41.1676L38.58 32.0626L35.58 32.0101L35.5275 36.0001L28.425 28.6201C29.0871 27.6879 29.5399 26.6236 29.7525 25.5001H39.9825L37.1625 28.3201L39.285 30.4426ZM7.78496 25.7551C7.43723 25.7581 7.09646 25.6577 6.80588 25.4666C6.51531 25.2756 6.28803 25.0026 6.1529 24.6822C6.01776 24.3617 5.98086 24.0084 6.04688 23.667C6.11289 23.3256 6.27884 23.0115 6.52368 22.7645C6.76851 22.5176 7.08118 22.3489 7.42202 22.28C7.76286 22.211 8.1165 22.2449 8.43806 22.3773C8.75962 22.5097 9.0346 22.7346 9.22812 23.0235C9.42163 23.3124 9.52495 23.6523 9.52496 24.0001C9.52497 24.4642 9.3411 24.9095 9.01359 25.2384C8.68608 25.5673 8.24162 25.7531 7.77746 25.7551H7.78496ZM16.89 24.0001C16.89 23.0089 17.184 22.04 17.7348 21.2159C18.2857 20.3919 19.0686 19.7497 19.9845 19.3707C20.9004 18.9918 21.9081 18.893 22.8801 19.0869C23.8522 19.2808 24.7449 19.7587 25.4452 20.4601C26.1456 21.1616 26.6221 22.055 26.8146 23.0273C27.0071 23.9996 26.9068 25.0072 26.5264 25.9225C26.1461 26.8379 25.5028 27.6198 24.6779 28.1694C23.853 28.719 22.8837 29.0116 21.8925 29.0101C20.565 29.0081 19.2926 28.4794 18.3547 27.54C17.4168 26.6007 16.89 25.3275 16.89 24.0001Z" fill="#FF6633"/>
</svg>
