<?xml version="1.0" encoding="UTF-8"?>
<svg xmlns="http://www.w3.org/2000/svg" width="1287" height="410" viewBox="0 0 1287 410" fill="none">
  <g clip-path="url(#clip0_35_5082)">
    <rect width="1287" height="410" rx="30" fill="white"></rect>
    <g clip-path="url(#clip1_35_5082)">
      <rect x="-106.581" y="-57.3889" width="1533.05" height="584.486" fill="#E2E7F0"></rect>
      <path d="M437.637 74.8906C437.637 75.6753 437.51 76.4311 437.256 77.1581C437.003 77.8851 436.628 78.5256 436.137 79.0795C435.647 79.6334 435.035 80.0777 434.302 80.4123C433.57 80.747 432.716 80.9143 431.752 80.9143C430.788 80.9143 429.923 80.747 429.179 80.4181C428.434 80.0892 427.805 79.6507 427.303 79.1026C426.796 78.5544 426.409 77.9255 426.144 77.21C425.878 76.4946 425.746 75.7445 425.746 74.9598C425.746 74.1751 425.878 73.4193 426.132 72.698C426.392 71.9768 426.773 71.3363 427.275 70.7824C427.777 70.2285 428.394 69.79 429.138 69.4611C429.877 69.138 430.731 68.9707 431.7 68.9707C432.669 68.9707 433.523 69.138 434.262 69.4611C435 69.79 435.618 70.2285 436.126 70.7709C436.633 71.3133 437.003 71.9422 437.262 72.6576C437.516 73.3731 437.643 74.1174 437.643 74.8906H437.637ZM435.058 74.9598C435.058 74.429 434.995 73.9212 434.868 73.425C434.741 72.9346 434.539 72.5076 434.268 72.1441C433.996 71.7806 433.656 71.4921 433.235 71.2729C432.819 71.0536 432.323 70.944 431.746 70.944C431.169 70.944 430.667 71.0478 430.24 71.2556C429.813 71.4633 429.461 71.746 429.179 72.1153C428.896 72.4788 428.688 72.9 428.544 73.3789C428.406 73.8578 428.336 74.3655 428.336 74.8906C428.336 75.4156 428.4 75.9465 428.532 76.4427C428.665 76.9331 428.873 77.3601 429.15 77.7293C429.427 78.0986 429.773 78.3929 430.194 78.6121C430.615 78.8314 431.112 78.941 431.689 78.941C432.266 78.941 432.762 78.8314 433.189 78.6179C433.61 78.4044 433.956 78.1159 434.233 77.7524C434.51 77.3889 434.712 76.9677 434.845 76.4888C434.977 76.0099 435.047 75.5022 435.047 74.954L435.058 74.9598Z" fill="#992F26"></path>
      <path d="M443.505 70.667C443.505 70.9671 443.465 71.2671 443.384 71.5556C443.304 71.8499 443.205 72.1326 443.084 72.4038C442.963 72.6749 442.825 72.9288 442.675 73.1654C442.525 73.4019 442.386 73.6039 442.259 73.7654H440.84C440.978 73.5693 441.117 73.3212 441.267 73.0211C441.411 72.7211 441.486 72.4211 441.486 72.121C441.486 71.9018 441.44 71.7287 441.348 71.5902C441.255 71.4575 441.151 71.3306 441.036 71.2094C440.921 71.0882 440.817 70.9555 440.724 70.7997C440.632 70.6497 440.586 70.4478 440.586 70.1939C440.586 69.8246 440.719 69.5246 440.973 69.3054C441.226 69.0861 441.55 68.9707 441.93 68.9707C442.346 68.9707 442.709 69.1207 443.032 69.4208C443.35 69.7208 443.505 70.1362 443.505 70.667Z" fill="#992F26"></path>
      <path d="M448.456 80.7066H445.998L450.395 69.1785H452.749L457.267 80.7066H454.601L453.822 78.5429H449.218L448.456 80.7066ZM452.143 73.8347C452.051 73.5924 451.964 73.3558 451.889 73.1135C451.814 72.8769 451.745 72.6635 451.687 72.4673C451.629 72.248 451.572 72.0403 451.514 71.8441H451.479C451.422 72.0519 451.364 72.2653 451.306 72.4846C451.202 72.8769 451.058 73.327 450.874 73.8347L449.904 76.587H453.124L452.137 73.8347H452.143Z" fill="#992F26"></path>
      <path d="M468.275 80.7066V75.7215H463.117V80.7066H460.676V69.1785H463.117V73.7136H468.275V69.1785H470.716V80.7066H468.275Z" fill="#992F26"></path>
      <path d="M484.875 76.0157C484.875 77.5967 484.483 78.8083 483.698 79.6507C482.914 80.4931 481.731 80.9143 480.15 80.9143C478.477 80.9143 477.236 80.5104 476.434 79.7142C475.632 78.918 475.234 77.7525 475.234 76.2408V69.1785H477.675V76.033C477.675 77.0255 477.865 77.7525 478.252 78.214C478.638 78.6756 479.284 78.9064 480.202 78.9064C481.119 78.9064 481.685 78.6641 482.065 78.1794C482.44 77.6948 482.631 77.0312 482.631 76.1888V69.1785H484.881V76.0157H484.875Z" fill="#992F26"></path>
      <path opacity="0.1" d="M506.091 129.173L504.844 122.44C504.642 121.344 503.598 120.611 502.496 120.796L499.865 121.228C499.634 121.269 499.398 121.263 499.167 121.228L495.907 120.64C495.722 120.605 495.543 120.547 495.37 120.467L492.751 119.186C492.387 119.007 492.087 118.73 491.885 118.384L489.681 114.633C489.468 114.27 489.37 113.849 489.404 113.427L489.687 110.017C489.727 109.533 489.595 109.048 489.306 108.65L477.882 92.7887C477.426 92.154 476.647 91.8367 475.874 91.9694L471.148 92.7829C470.756 92.8522 470.393 93.031 470.104 93.3022L459.447 103.209C459.124 103.509 458.714 103.699 458.276 103.746L445.236 105.153C443.724 105.315 442.917 107.006 443.73 108.286L445.53 111.114C445.744 111.448 445.853 111.841 445.848 112.239L445.802 115.995C445.796 116.497 445.975 116.987 446.304 117.368L457.128 129.768C457.26 129.923 457.376 130.097 457.457 130.287L459.967 135.964C460.232 136.57 460.774 137.003 461.421 137.142L463.665 137.609C463.827 137.643 463.994 137.655 464.161 137.649L471.391 137.367C472.995 137.303 473.906 135.509 473.012 134.182L472.499 133.42C471.725 132.266 472.297 130.691 473.635 130.31L474.08 130.183C474.847 129.964 475.666 130.212 476.191 130.812C476.416 131.072 476.566 131.377 476.641 131.706L477.12 133.87C477.368 134.989 478.488 135.688 479.601 135.416L482.931 134.614C483.617 134.447 484.333 134.649 484.84 135.139L489.75 139.917C489.924 140.084 490.12 140.217 490.333 140.315L495.197 142.513C495.526 142.663 495.89 142.721 496.247 142.686L507.545 141.532C507.804 141.504 508.064 141.429 508.295 141.307L512.161 139.259C513.24 138.688 513.58 137.303 512.893 136.293L512.218 135.307C512.126 135.168 512.016 135.047 511.889 134.932L506.754 130.356C506.414 130.056 506.183 129.646 506.102 129.202L506.091 129.173ZM559.202 187.01L553.098 184.437C552.74 184.287 552.348 184.241 551.967 184.304L543.416 185.729C541.939 185.977 541.218 187.674 542.066 188.909L547.034 196.15C547.184 196.369 547.293 196.617 547.345 196.877L548.689 203.143C548.857 203.933 549.474 204.545 550.265 204.712L555.596 205.849C556.046 205.947 556.513 205.889 556.923 205.687L562.52 202.941C562.849 202.779 563.126 202.537 563.328 202.231L566.709 197.102C567.193 196.363 567.153 195.4 566.605 194.707L563.264 190.472C563.189 190.374 563.103 190.282 563.004 190.201L559.75 187.356C559.583 187.212 559.398 187.097 559.196 187.01H559.202ZM574.4 129.785L571.561 127.927C571.088 127.615 570.505 127.517 569.957 127.65L565.532 128.729C565.284 128.787 565.03 128.804 564.776 128.769L541.477 125.671C541.304 125.648 541.131 125.602 540.964 125.533L539.74 125.031C538.454 124.5 537.029 125.377 536.919 126.762L536.74 129.035C536.706 129.473 536.527 129.895 536.232 130.223L534.069 132.681C533.855 132.924 533.705 133.212 533.624 133.524L533.174 135.255C532.851 136.501 533.751 137.736 535.038 137.811L562.901 139.432C563.039 139.438 563.178 139.461 563.31 139.496L580.597 144.129C581.047 144.25 581.52 144.215 581.947 144.031L593.383 139.046C593.74 138.89 594.052 138.63 594.266 138.307L596.452 135.036C597.22 133.882 596.648 132.318 595.321 131.931L594.837 131.793C594.704 131.752 594.571 131.729 594.439 131.718L575.352 130.12C575.012 130.091 574.688 129.981 574.4 129.791V129.785ZM678.944 178.431L676.763 175.655C676.607 175.453 676.411 175.286 676.186 175.153L667.15 169.857C666.989 169.764 666.844 169.649 666.712 169.51L662.055 164.681C661.905 164.525 661.732 164.398 661.542 164.294L647.804 156.978C647.423 156.776 646.99 156.701 646.563 156.759L638.618 157.849C638.538 157.861 638.463 157.878 638.382 157.896L627.402 160.746C626.807 160.902 626.179 160.781 625.682 160.417L623.778 159.027C623.611 158.905 623.467 158.761 623.34 158.594L618.47 152.033C618.372 151.901 618.262 151.785 618.135 151.682L613.058 147.464C612.614 147.094 612.025 146.927 611.454 147.014L605.309 147.914C604.657 148.012 604.092 148.41 603.792 148.999L599.96 156.384C599.758 156.771 599.689 157.209 599.753 157.636L600.41 161.94C600.474 162.338 600.647 162.708 600.918 163.008L608.702 171.576C608.886 171.778 609.111 171.945 609.365 172.061L616.479 175.321C616.86 175.494 617.287 175.551 617.703 175.476L622.503 174.599C623.519 174.415 624.517 175.015 624.823 176.007L627.719 185.326C627.759 185.447 627.783 185.574 627.8 185.701L628.838 194.696C628.919 195.417 629.381 196.04 630.044 196.334L632.041 197.217C632.26 197.315 632.491 197.373 632.727 197.39L643.038 198.094C643.35 198.117 643.667 198.065 643.961 197.944L651.808 194.707C651.976 194.638 652.149 194.592 652.322 194.569L665.985 192.774C666.348 192.728 666.689 192.584 666.977 192.359L676.722 184.766C676.947 184.593 677.132 184.368 677.271 184.12L679.128 180.663C679.515 179.948 679.44 179.071 678.932 178.431H678.944ZM789.448 284.013L786.009 275.364C785.755 274.729 785.201 274.262 784.532 274.118L778.203 272.773C777.366 272.594 776.731 271.919 776.604 271.077L774.643 258.153C774.579 257.754 774.406 257.379 774.129 257.079L762.151 243.976C761.949 243.757 761.701 243.578 761.424 243.463L714.042 223.874C713.967 223.845 713.898 223.81 713.828 223.77L691.014 211.105C690.478 210.811 689.843 210.765 689.272 210.99L686.387 212.121C685.735 212.375 685.256 212.952 685.123 213.638L683.375 222.726C683.294 223.147 683.346 223.58 683.525 223.966L690.985 240.22C691.291 240.889 691.216 241.674 690.784 242.274L681.54 255.083C681.436 255.227 681.315 255.354 681.183 255.464L672.62 262.503C672.482 262.618 672.36 262.745 672.257 262.895L666.302 271.221C665.864 271.839 665.794 272.646 666.135 273.327L674.865 290.781C674.905 290.856 674.94 290.937 674.963 291.018L683.323 314.847C683.415 315.101 683.45 315.372 683.433 315.643L681.765 344.729C681.748 345.046 681.8 345.364 681.927 345.652L684.206 350.972C684.391 351.405 684.719 351.757 685.135 351.976L706.887 363.435C707.141 363.568 707.418 363.648 707.701 363.666L712.484 363.995C713.113 364.035 713.73 363.787 714.146 363.32L718.26 358.727C718.398 358.571 718.508 358.398 718.594 358.213L723.435 347.643C723.591 347.308 723.827 347.02 724.128 346.812L748.874 329.658C749.082 329.514 749.319 329.41 749.567 329.347L777.845 322.631C778.087 322.573 778.318 322.469 778.526 322.331L800.884 307.052C801.115 306.896 801.311 306.694 801.461 306.458L805.644 299.863C806.117 299.113 806.059 298.149 805.494 297.463L802.419 293.729C802.303 293.591 802.17 293.47 802.026 293.366L790.123 284.907C789.8 284.677 789.552 284.359 789.408 283.996L789.448 284.013Z" fill="#992F26"></path>
      <path d="M638.572 161.871C638.572 161.871 669.493 212.438 682.954 289.056" stroke="#BB3F26" stroke-width="1.29" stroke-miterlimit="10"></path>
      <path d="M550.311 127.725C550.311 127.725 514.261 143.269 479.844 132.843" stroke="#BB3F26" stroke-width="1.29" stroke-miterlimit="10"></path>
      <path d="M640.234 163.527C640.234 163.527 658.144 183.473 677.074 184.5" stroke="#BB3F26" stroke-width="1.29" stroke-miterlimit="10"></path>
      <path d="M475.805 130.027C475.805 130.027 529.338 196.652 605.771 161.877" stroke="#BB3F26" stroke-width="1.29" stroke-miterlimit="10"></path>
      <path d="M547.651 128.135C547.651 128.135 526.672 155.236 554.038 194.332" stroke="#BB3F26" stroke-width="1.29" stroke-miterlimit="10"></path>
      <path d="M573.725 126.144C573.725 126.144 560.668 117.743 550.68 127.864" stroke="#BB3F26" stroke-width="1.29" stroke-miterlimit="10"></path>
      <path d="M478.713 132.076C478.713 132.076 513.799 104.38 571.573 123.565" stroke="#BB3F26" stroke-width="1.29" stroke-miterlimit="10"></path>
      <path d="M702.854 254.985C702.745 250.479 674.524 210.072 638.572 163.417C638.572 163.417 594.635 131.729 545.083 129.156" stroke="#BB3F26" stroke-width="1.29" stroke-miterlimit="10"></path>
      <path d="M479.071 135.284C479.071 135.284 488.914 183.196 555.798 195.18" stroke="#BB3F26" stroke-width="1.29" stroke-miterlimit="10"></path>
      <path d="M557.01 194.776C557.01 194.776 617.172 189.941 637.851 161.865" stroke="#BB3F26" stroke-width="1.29" stroke-miterlimit="10"></path>
      <path d="M550.34 80.7066L548.384 74.7348C548.326 74.5502 548.269 74.3598 548.217 74.1636C548.165 73.9674 548.113 73.7886 548.073 73.627C548.026 73.4308 547.974 73.2462 547.917 73.0731H547.882C547.871 73.2577 547.853 73.4482 547.83 73.6443C547.807 73.8059 547.79 73.9848 547.778 74.1809C547.767 74.3771 547.749 74.5733 547.726 74.7695L546.982 80.7066H544.784L546.376 69.1785H548.748L551.067 76.2927C551.136 76.5119 551.206 76.737 551.275 76.9678C551.344 77.1986 551.407 77.412 551.465 77.6082C551.523 77.839 551.586 78.064 551.656 78.2833H551.69C551.748 78.064 551.811 77.839 551.881 77.6082C551.938 77.412 552.002 77.1986 552.071 76.9678C552.14 76.737 552.215 76.5119 552.296 76.2927L554.685 69.1785H557.039L558.631 80.7066H556.139L555.394 74.7521C555.371 74.556 555.348 74.3598 555.325 74.1521C555.302 73.9501 555.279 73.7713 555.256 73.6097C555.233 73.4251 555.216 73.2462 555.204 73.0731H555.169C555.123 73.2462 555.077 73.4251 555.031 73.6097C554.985 73.7713 554.933 73.9444 554.875 74.1405C554.817 74.3309 554.76 74.5271 554.702 74.7175L552.746 80.7066H550.34Z" fill="#992F26"></path>
      <path d="M573.708 74.8906C573.708 75.6753 573.581 76.4311 573.327 77.1581C573.073 77.8851 572.698 78.5256 572.207 79.0795C571.717 79.6334 571.105 80.0777 570.373 80.4123C569.64 80.747 568.786 80.9143 567.822 80.9143C566.859 80.9143 565.993 80.747 565.249 80.4181C564.505 80.0892 563.876 79.6507 563.374 79.1026C562.866 78.5544 562.479 77.9255 562.214 77.21C561.949 76.4946 561.816 75.7445 561.816 74.9598C561.816 74.1751 561.949 73.4193 562.203 72.698C562.462 71.9768 562.843 71.3363 563.345 70.7824C563.847 70.2285 564.464 69.79 565.209 69.4611C565.947 69.1323 566.801 68.9707 567.77 68.9707C568.74 68.9707 569.594 69.138 570.332 69.4611C571.071 69.79 571.688 70.2285 572.196 70.7709C572.704 71.3133 573.073 71.9422 573.333 72.6576C573.586 73.3731 573.713 74.1174 573.713 74.8906H573.708ZM571.128 74.9598C571.128 74.429 571.065 73.9212 570.938 73.425C570.811 72.9346 570.609 72.5076 570.338 72.1441C570.067 71.7806 569.726 71.4921 569.305 71.2729C568.89 71.0536 568.394 70.944 567.817 70.944C567.24 70.944 566.738 71.0478 566.311 71.2556C565.884 71.4633 565.532 71.746 565.249 72.1153C564.966 72.4788 564.759 72.9 564.614 73.3789C564.476 73.8578 564.407 74.3655 564.407 74.8906C564.407 75.4156 564.47 75.9465 564.603 76.4427C564.735 76.9331 564.943 77.3601 565.22 77.7293C565.497 78.0986 565.843 78.3929 566.264 78.6121C566.686 78.8314 567.182 78.941 567.759 78.941C568.336 78.941 568.832 78.8314 569.259 78.6179C569.68 78.4044 570.026 78.1159 570.303 77.7524C570.58 77.3889 570.782 76.9677 570.915 76.4888C571.048 76.0099 571.117 75.5022 571.117 74.954L571.128 74.9598Z" fill="#992F26"></path>
      <path d="M577.654 80.7066V69.1785H580.095V78.7333H584.388V80.7066H577.654Z" fill="#992F26"></path>
      <path d="M599.447 74.8906C599.447 75.6753 599.32 76.4311 599.066 77.1581C598.812 77.8851 598.437 78.5256 597.947 79.0795C597.456 79.6334 596.845 80.0777 596.112 80.4123C595.379 80.747 594.525 80.9143 593.562 80.9143C592.598 80.9143 591.733 80.747 590.988 80.4181C590.244 80.0892 589.615 79.6507 589.113 79.1026C588.605 78.5544 588.219 77.9255 587.953 77.21C587.688 76.4946 587.555 75.7445 587.555 74.9598C587.555 74.1751 587.688 73.4193 587.942 72.698C588.201 71.9768 588.582 71.3363 589.084 70.7824C589.586 70.2285 590.204 69.79 590.948 69.4611C591.686 69.1323 592.54 68.9707 593.51 68.9707C594.479 68.9707 595.333 69.138 596.071 69.4611C596.81 69.79 597.427 70.2285 597.935 70.7709C598.443 71.3133 598.812 71.9422 599.072 72.6576C599.326 73.3731 599.453 74.1174 599.453 74.8906H599.447ZM596.868 74.9598C596.868 74.429 596.804 73.9212 596.677 73.425C596.55 72.9346 596.348 72.5076 596.077 72.1441C595.806 71.7806 595.466 71.4921 595.044 71.2729C594.629 71.0536 594.133 70.944 593.556 70.944C592.979 70.944 592.477 71.0478 592.05 71.2556C591.623 71.4633 591.271 71.746 590.988 72.1153C590.706 72.4788 590.498 72.9 590.354 73.3789C590.215 73.8578 590.146 74.3655 590.146 74.8906C590.146 75.4156 590.209 75.9465 590.342 76.4427C590.475 76.9331 590.682 77.3601 590.959 77.7293C591.236 78.0986 591.583 78.3929 592.004 78.6121C592.425 78.8314 592.921 78.941 593.498 78.941C594.075 78.941 594.571 78.8314 594.998 78.6179C595.419 78.4044 595.766 78.1159 596.043 77.7524C596.32 77.3889 596.522 76.9677 596.654 76.4888C596.787 76.0099 596.856 75.5022 596.856 74.954L596.868 74.9598Z" fill="#992F26"></path>
      <path d="M609.729 69.1785H612.429L608.188 74.5271L612.62 80.7066H609.729L605.8 75.1503V80.7066H603.359V69.1785H605.8V74.2155L609.729 69.1785Z" fill="#992F26"></path>
      <path d="M617.276 80.7066H614.818L619.214 69.1785H621.569L626.086 80.7066H623.421L622.642 78.5429H618.037L617.276 80.7066ZM620.963 73.8347C620.87 73.5924 620.784 73.3558 620.709 73.1135C620.634 72.8769 620.565 72.6635 620.507 72.4673C620.449 72.248 620.392 72.0403 620.334 71.8441H620.299C620.242 72.0519 620.184 72.2653 620.126 72.4846C620.022 72.8769 619.878 73.327 619.693 73.8347L618.724 76.587H621.944L620.957 73.8347H620.963Z" fill="#992F26"></path>
      <path d="M631.452 70.667C631.452 70.9671 631.412 71.2671 631.331 71.5556C631.25 71.8499 631.152 72.1326 631.031 72.4038C630.91 72.6749 630.771 72.9288 630.621 73.1654C630.471 73.4019 630.333 73.6039 630.206 73.7654H628.787C628.925 73.5693 629.064 73.3212 629.214 73.0211C629.358 72.7211 629.433 72.4211 629.433 72.121C629.433 71.9018 629.387 71.7287 629.294 71.5902C629.202 71.4575 629.098 71.3306 628.983 71.2094C628.867 71.0882 628.764 70.9555 628.671 70.7997C628.579 70.6497 628.533 70.4478 628.533 70.1939C628.533 69.8246 628.665 69.5246 628.919 69.3054C629.179 69.0803 629.502 68.9707 629.883 68.9707C630.298 68.9707 630.662 69.1207 630.985 69.4208C631.302 69.7208 631.458 70.1362 631.458 70.667H631.452Z" fill="#992F26"></path>
      <path d="M635.226 80.7066V69.1785H637.667V80.7066H635.226Z" fill="#992F26"></path>
      <path d="M681.033 129.71L679.077 123.738C679.019 123.553 678.962 123.363 678.91 123.167C678.858 122.971 678.806 122.792 678.765 122.63C678.719 122.434 678.667 122.25 678.61 122.076H678.575C678.563 122.261 678.546 122.451 678.523 122.648C678.5 122.809 678.483 122.988 678.471 123.184C678.46 123.38 678.442 123.577 678.419 123.773L677.675 129.71H675.477L677.069 118.182H679.44L681.76 125.296C681.829 125.515 681.898 125.74 681.968 125.971C682.037 126.202 682.1 126.415 682.158 126.612C682.216 126.842 682.279 127.067 682.348 127.287H682.383C682.441 127.067 682.504 126.842 682.573 126.612C682.631 126.415 682.695 126.202 682.764 125.971C682.833 125.74 682.908 125.515 682.989 125.296L685.378 118.182H687.732L689.324 129.71H686.832L686.087 123.755C686.064 123.559 686.041 123.363 686.018 123.155C685.995 122.953 685.972 122.775 685.949 122.613C685.926 122.428 685.908 122.25 685.897 122.076H685.862C685.816 122.25 685.77 122.428 685.724 122.613C685.678 122.775 685.626 122.948 685.568 123.144C685.51 123.334 685.453 123.53 685.395 123.721L683.439 129.71H681.033Z" fill="#992F26"></path>
      <path d="M694.482 129.71H692.024L696.421 118.182H698.775L703.293 129.71H700.627L699.848 127.546H695.244L694.482 129.71ZM698.169 122.838C698.077 122.596 697.99 122.359 697.915 122.117C697.84 121.88 697.771 121.667 697.713 121.471C697.656 121.251 697.598 121.044 697.54 120.847H697.506C697.448 121.055 697.39 121.269 697.333 121.488C697.229 121.88 697.085 122.33 696.9 122.838L695.931 125.59H699.15L698.164 122.838H698.169Z" fill="#992F26"></path>
      <path d="M716.275 125.019C716.275 126.6 715.882 127.812 715.098 128.654C714.313 129.496 713.13 129.918 711.549 129.918C709.876 129.918 708.635 129.514 707.833 128.718C707.031 127.921 706.633 126.756 706.633 125.244V118.182H709.074V125.036C709.074 126.029 709.264 126.756 709.651 127.217C710.038 127.679 710.684 127.91 711.601 127.91C712.519 127.91 713.084 127.667 713.465 127.183C713.84 126.698 714.03 126.035 714.03 125.192V118.182H716.281V125.019H716.275Z" fill="#992F26"></path>
      <path d="M720.948 129.71V118.182H723.389V129.71H720.948Z" fill="#992F26"></path>
      <path d="M523.429 244.345V232.817H525.87V242.372H530.163V244.345H523.429Z" fill="#992F26"></path>
      <path d="M535.304 244.345H532.846L537.242 232.817H539.596L544.114 244.345H541.449L540.67 242.182H536.065L535.304 244.345ZM538.991 237.473C538.898 237.231 538.812 236.995 538.737 236.752C538.662 236.516 538.592 236.302 538.535 236.106C538.477 235.887 538.419 235.679 538.362 235.483H538.327C538.269 235.691 538.212 235.904 538.154 236.123C538.05 236.516 537.906 236.966 537.721 237.473L536.752 240.226H539.971L538.985 237.473H538.991Z" fill="#992F26"></path>
      <path d="M555.279 244.345L550.796 237.941C550.461 237.479 550.195 237.081 549.999 236.746C549.884 236.562 549.78 236.383 549.688 236.21H549.653C549.665 236.36 549.676 236.521 549.688 236.694C549.699 236.844 549.705 237.012 549.711 237.196C549.711 237.381 549.717 237.566 549.717 237.75V244.345H547.501V232.817H549.959L554.113 238.789C554.286 239.043 554.442 239.279 554.592 239.51C554.736 239.735 554.863 239.943 554.979 240.122L555.325 240.728H555.36C555.348 240.555 555.336 240.364 555.325 240.156C555.313 239.983 555.302 239.793 555.302 239.579C555.296 239.366 555.29 239.147 555.29 238.91V232.817H557.506V244.345H555.273H555.279Z" fill="#992F26"></path>
      <path d="M563.38 244.345H560.922L565.318 232.817H567.673L572.19 244.345H569.525L568.746 242.182H564.141L563.38 244.345ZM567.067 237.473C566.974 237.231 566.888 236.995 566.813 236.752C566.738 236.516 566.669 236.302 566.611 236.106C566.553 235.887 566.496 235.679 566.438 235.483H566.403C566.346 235.691 566.288 235.904 566.23 236.123C566.126 236.516 565.982 236.966 565.797 237.473L564.828 240.226H568.048L567.061 237.473H567.067Z" fill="#992F26"></path>
      <path d="M577.556 234.306C577.556 234.606 577.516 234.906 577.435 235.194C577.354 235.489 577.256 235.771 577.135 236.042C577.014 236.314 576.875 236.568 576.725 236.804C576.575 237.041 576.437 237.243 576.31 237.404H574.891C575.029 237.208 575.168 236.96 575.318 236.66C575.462 236.36 575.537 236.06 575.537 235.76C575.537 235.54 575.491 235.367 575.398 235.229C575.306 235.096 575.202 234.969 575.087 234.848C574.971 234.727 574.868 234.594 574.775 234.438C574.683 234.288 574.637 234.086 574.637 233.833C574.637 233.463 574.769 233.163 575.023 232.944C575.283 232.719 575.606 232.609 575.987 232.609C576.402 232.609 576.766 232.759 577.089 233.059C577.406 233.359 577.562 233.775 577.562 234.306H577.556Z" fill="#992F26"></path>
      <path d="M581.33 244.345V232.817H583.77V244.345H581.33Z" fill="#992F26"></path>
      <path d="M543.462 229.384H533.192V231.207H543.462V229.384Z" fill="#992F26"></path>
      <path d="M411.24 137.493V134.666H408.321V137.493H406.936V130.962H408.321V133.529H411.246V130.962H412.631V137.493H411.246H411.24Z" fill="#CF3A2E"></path>
      <path d="M421.568 134.199C421.568 134.643 421.499 135.07 421.355 135.486C421.211 135.895 420.997 136.259 420.72 136.576C420.443 136.888 420.097 137.141 419.682 137.332C419.266 137.522 418.782 137.615 418.233 137.615C417.685 137.615 417.201 137.522 416.779 137.338C416.358 137.153 416 136.905 415.718 136.593C415.429 136.282 415.21 135.924 415.06 135.52C414.91 135.116 414.835 134.689 414.835 134.245C414.835 133.801 414.91 133.374 415.054 132.964C415.204 132.554 415.418 132.197 415.7 131.879C415.983 131.568 416.335 131.314 416.756 131.129C417.178 130.945 417.656 130.847 418.21 130.847C418.764 130.847 419.243 130.939 419.664 131.129C420.086 131.314 420.432 131.562 420.72 131.868C421.003 132.174 421.216 132.531 421.361 132.935C421.505 133.339 421.574 133.76 421.574 134.199H421.568ZM420.109 134.239C420.109 133.939 420.074 133.651 419.999 133.374C419.93 133.097 419.814 132.854 419.659 132.647C419.503 132.439 419.312 132.277 419.076 132.151C418.839 132.024 418.557 131.966 418.233 131.966C417.91 131.966 417.622 132.024 417.379 132.145C417.137 132.266 416.935 132.422 416.774 132.629C416.612 132.837 416.497 133.074 416.416 133.345C416.335 133.616 416.301 133.905 416.301 134.205C416.301 134.505 416.341 134.805 416.416 135.082C416.491 135.359 416.606 135.601 416.762 135.814C416.918 136.028 417.114 136.189 417.356 136.316C417.593 136.438 417.876 136.501 418.205 136.501C418.533 136.501 418.816 136.443 419.053 136.322C419.289 136.201 419.491 136.039 419.647 135.832C419.803 135.624 419.918 135.387 419.993 135.116C420.068 134.845 420.109 134.557 420.109 134.251V134.239Z" fill="#CF3A2E"></path>
      <path d="M428.181 137.493L425.642 133.864C425.451 133.605 425.301 133.379 425.192 133.189C425.128 133.085 425.065 132.981 425.013 132.883H424.996C425.001 132.97 425.007 133.062 425.013 133.16C425.019 133.247 425.025 133.339 425.03 133.443C425.03 133.547 425.03 133.651 425.03 133.755V137.493H423.772V130.962H425.163L427.517 134.349C427.615 134.493 427.707 134.626 427.788 134.758C427.869 134.885 427.944 135.001 428.008 135.105L428.204 135.451H428.221C428.215 135.353 428.209 135.243 428.204 135.128C428.198 135.03 428.192 134.92 428.186 134.799C428.186 134.678 428.186 134.551 428.186 134.424V130.973H429.444V137.505H428.181V137.493Z" fill="#CF3A2E"></path>
      <path d="M438.393 134.199C438.393 134.643 438.324 135.07 438.18 135.486C438.035 135.895 437.822 136.259 437.545 136.576C437.268 136.888 436.922 137.141 436.506 137.332C436.091 137.522 435.606 137.615 435.058 137.615C434.51 137.615 434.025 137.522 433.604 137.338C433.183 137.153 432.825 136.905 432.542 136.593C432.254 136.282 432.035 135.924 431.885 135.52C431.735 135.116 431.66 134.689 431.66 134.245C431.66 133.801 431.735 133.374 431.879 132.964C432.029 132.554 432.242 132.197 432.525 131.879C432.808 131.568 433.16 131.314 433.581 131.129C434.002 130.945 434.481 130.847 435.035 130.847C435.589 130.847 436.068 130.939 436.489 131.129C436.91 131.314 437.256 131.562 437.545 131.868C437.828 132.174 438.041 132.531 438.185 132.935C438.33 133.339 438.399 133.76 438.399 134.199H438.393ZM436.933 134.239C436.933 133.939 436.899 133.651 436.824 133.374C436.754 133.097 436.639 132.854 436.483 132.647C436.327 132.439 436.137 132.277 435.901 132.151C435.664 132.024 435.381 131.966 435.058 131.966C434.735 131.966 434.447 132.024 434.204 132.145C433.962 132.266 433.76 132.422 433.598 132.629C433.437 132.837 433.321 133.074 433.241 133.345C433.16 133.616 433.125 133.905 433.125 134.205C433.125 134.505 433.166 134.805 433.241 135.082C433.316 135.359 433.431 135.601 433.587 135.814C433.743 136.028 433.939 136.189 434.181 136.316C434.418 136.438 434.7 136.501 435.029 136.501C435.358 136.501 435.641 136.443 435.877 136.322C436.114 136.201 436.316 136.039 436.472 135.832C436.628 135.624 436.743 135.387 436.818 135.116C436.893 134.845 436.933 134.557 436.933 134.251V134.239Z" fill="#CF3A2E"></path>
      <path d="M440.626 137.493V130.962H442.011V136.374H444.446V137.493H440.632H440.626Z" fill="#CF3A2E"></path>
      <path d="M452.056 134.839C452.056 135.734 451.831 136.42 451.387 136.899C450.943 137.378 450.273 137.615 449.379 137.615C448.433 137.615 447.729 137.39 447.273 136.934C446.817 136.478 446.592 135.826 446.592 134.966V130.962H447.977V134.845C447.977 135.405 448.087 135.82 448.306 136.08C448.525 136.339 448.894 136.472 449.408 136.472C449.921 136.472 450.25 136.334 450.464 136.062C450.677 135.786 450.781 135.41 450.781 134.937V130.962H452.056V134.833V134.839Z" fill="#CF3A2E"></path>
      <path d="M454.664 137.493V130.962H456.049V136.374H458.484V137.493H454.67H454.664Z" fill="#CF3A2E"></path>
      <path d="M466.094 134.839C466.094 135.734 465.869 136.42 465.425 136.899C464.981 137.378 464.312 137.615 463.417 137.615C462.471 137.615 461.767 137.39 461.311 136.934C460.855 136.478 460.63 135.826 460.63 134.966V130.962H462.015V134.845C462.015 135.405 462.125 135.82 462.344 136.08C462.563 136.339 462.933 136.472 463.446 136.472C463.96 136.472 464.288 136.334 464.502 136.062C464.715 135.786 464.819 135.41 464.819 134.937V130.962H466.094V134.833V134.839Z" fill="#CF3A2E"></path>
      <path d="M769.773 347.706V342.721H764.614V347.706H762.174V336.178H764.614V340.713H769.773V336.178H772.213V347.706H769.773Z" fill="#992F26"></path>
      <path d="M778.081 347.706H775.624L780.02 336.178H782.374L786.892 347.706H784.226L783.447 345.543H778.843L778.081 347.706ZM781.768 340.834C781.676 340.592 781.59 340.355 781.515 340.113C781.44 339.877 781.37 339.663 781.318 339.467C781.261 339.248 781.203 339.04 781.145 338.844H781.111C781.053 339.051 780.995 339.265 780.938 339.484C780.834 339.877 780.689 340.327 780.505 340.834L779.536 343.587H782.755L781.768 340.834Z" fill="#992F26"></path>
      <path d="M801.259 347.706H799.009L797.347 341.319C797.289 341.088 797.232 340.846 797.174 340.592C797.116 340.338 797.064 340.107 797.018 339.9L796.88 339.173H796.845C796.799 339.403 796.747 339.64 796.689 339.882C796.632 340.09 796.568 340.321 796.51 340.581C796.447 340.84 796.384 341.088 796.326 341.313L794.508 347.701H792.258L789.16 336.172H791.756L793.21 342.196C793.268 342.427 793.325 342.669 793.377 342.917C793.429 343.165 793.476 343.396 793.51 343.598C793.556 343.84 793.597 344.077 793.631 344.308H793.666C793.724 344.066 793.776 343.817 793.822 343.564C793.868 343.344 793.92 343.108 793.977 342.854C794.035 342.6 794.093 342.358 794.151 342.127L795.726 336.172H798.132L799.672 342.092C799.799 342.6 799.909 343.085 800.001 343.546C800.047 343.8 800.094 344.048 800.14 344.291H800.174C800.209 344.06 800.249 343.823 800.295 343.581C800.33 343.373 800.37 343.142 800.422 342.888C800.474 342.635 800.526 342.392 800.59 342.161L802.078 336.172H804.415L801.265 347.701L801.259 347.706Z" fill="#992F26"></path>
      <path d="M809.129 347.706H806.671L811.068 336.178H813.422L817.939 347.706H815.274L814.495 345.543H809.89L809.129 347.706ZM812.822 340.834C812.729 340.592 812.643 340.355 812.568 340.113C812.493 339.877 812.423 339.663 812.372 339.467C812.314 339.248 812.256 339.04 812.198 338.844H812.164C812.106 339.051 812.048 339.265 811.991 339.484C811.887 339.877 811.743 340.327 811.558 340.834L810.589 343.587H813.808L812.822 340.834Z" fill="#992F26"></path>
      <path d="M821.454 347.706V336.178H823.894V347.706H821.454Z" fill="#992F26"></path>
      <path d="M830.645 337.667C830.645 337.967 830.605 338.267 830.524 338.555C830.443 338.85 830.339 339.132 830.218 339.404C830.097 339.675 829.958 339.929 829.808 340.165C829.658 340.402 829.52 340.604 829.393 340.765H827.974C828.112 340.569 828.251 340.321 828.401 340.021C828.545 339.721 828.62 339.421 828.62 339.121C828.62 338.902 828.574 338.728 828.481 338.59C828.389 338.457 828.285 338.33 828.17 338.209C828.054 338.088 827.951 337.955 827.858 337.8C827.766 337.649 827.72 337.448 827.72 337.194C827.72 336.824 827.852 336.524 828.106 336.305C828.366 336.08 828.689 335.97 829.07 335.97C829.485 335.97 829.855 336.12 830.172 336.421C830.489 336.721 830.651 337.136 830.651 337.667H830.645Z" fill="#992F26"></path>
      <path d="M834.418 347.706V336.178H836.859V347.706H834.418Z" fill="#992F26"></path>
      <path d="M846.847 347.706V336.178H849.287V347.706H846.847Z" fill="#992F26"></path>
      <path d="M860.884 344.487C860.884 345.006 860.786 345.479 860.596 345.906C860.406 346.333 860.129 346.697 859.777 346.991C859.419 347.285 858.98 347.516 858.473 347.677C857.959 347.839 857.382 347.92 856.747 347.92C856.274 347.92 855.847 347.879 855.467 347.799C855.086 347.718 854.745 347.62 854.451 347.504C854.157 347.389 853.903 347.268 853.689 347.135C853.476 347.002 853.303 346.881 853.182 346.777L854.22 345.081C854.289 345.127 854.393 345.202 854.532 345.3C854.67 345.398 854.843 345.491 855.051 345.583C855.259 345.675 855.501 345.762 855.778 345.837C856.055 345.912 856.361 345.952 856.695 345.952C857.284 345.952 857.734 345.82 858.051 345.56C858.369 345.3 858.53 344.989 858.53 344.619C858.53 344.366 858.461 344.152 858.311 343.973C858.167 343.794 857.976 343.639 857.74 343.494C857.503 343.356 857.232 343.223 856.921 343.085C856.609 342.952 856.286 342.802 855.951 342.629C855.593 342.456 855.265 342.265 854.965 342.058C854.665 341.85 854.405 341.613 854.186 341.348C853.966 341.082 853.793 340.771 853.666 340.425C853.539 340.073 853.476 339.657 853.476 339.184C853.476 338.711 853.574 338.244 853.77 337.851C853.966 337.459 854.226 337.124 854.561 336.847C854.895 336.57 855.282 336.357 855.732 336.207C856.182 336.057 856.667 335.982 857.186 335.982C857.659 335.982 858.074 336.017 858.438 336.086C858.801 336.155 859.125 336.242 859.402 336.34C859.679 336.438 859.909 336.542 860.094 336.651C860.279 336.761 860.434 336.859 860.561 336.951L859.575 338.665C859.471 338.596 859.344 338.521 859.194 338.44C859.044 338.359 858.871 338.284 858.675 338.215C858.478 338.146 858.265 338.082 858.034 338.03C857.803 337.978 857.567 337.955 857.324 337.955C856.851 337.955 856.476 338.053 856.199 338.261C855.922 338.463 855.784 338.763 855.784 339.15C855.784 339.38 855.836 339.571 855.951 339.727C856.061 339.882 856.211 340.021 856.401 340.148C856.592 340.275 856.817 340.396 857.076 340.511C857.336 340.627 857.619 340.754 857.919 340.892C858.3 341.065 858.669 341.25 859.032 341.446C859.39 341.642 859.707 341.879 859.979 342.156C860.25 342.433 860.469 342.756 860.636 343.137C860.804 343.512 860.89 343.962 860.89 344.492L860.884 344.487Z" fill="#992F26"></path>
      <path d="M864.779 347.706V336.178H867.22V345.733H871.513V347.706H864.779Z" fill="#992F26"></path>
      <path d="M876.654 347.706H874.196L878.592 336.178H880.947L885.464 347.706H882.799L882.02 345.543H877.415L876.654 347.706ZM880.341 340.834C880.248 340.592 880.162 340.355 880.087 340.113C880.012 339.877 879.943 339.663 879.891 339.467C879.833 339.248 879.775 339.04 879.718 338.844H879.683C879.625 339.051 879.568 339.265 879.51 339.484C879.406 339.877 879.262 340.327 879.077 340.834L878.108 343.587H881.327L880.341 340.834Z" fill="#992F26"></path>
      <path d="M896.629 347.706L892.146 341.302C891.811 340.84 891.546 340.442 891.349 340.107C891.234 339.923 891.13 339.744 891.038 339.571H891.003C891.015 339.721 891.026 339.882 891.038 340.055C891.049 340.205 891.055 340.373 891.061 340.557C891.061 340.742 891.067 340.927 891.067 341.111V347.706H888.851V336.178H891.309L895.463 342.15C895.636 342.404 895.792 342.64 895.942 342.871C896.086 343.096 896.213 343.304 896.329 343.483L896.675 344.089H896.71C896.698 343.915 896.687 343.725 896.675 343.517C896.663 343.344 896.652 343.154 896.652 342.94C896.652 342.727 896.646 342.508 896.646 342.271V336.178H898.862V347.706H896.629Z" fill="#992F26"></path>
      <path d="M913.523 341.786C913.523 342.617 913.39 343.396 913.125 344.117C912.859 344.839 912.45 345.462 911.901 345.993C911.353 346.523 910.655 346.945 909.813 347.245C908.97 347.551 907.978 347.701 906.836 347.701H903.443V336.172H906.922C908.053 336.172 909.034 336.311 909.865 336.582C910.696 336.853 911.382 337.24 911.925 337.736C912.467 338.232 912.871 338.826 913.125 339.513C913.384 340.2 913.517 340.956 913.517 341.792L913.523 341.786ZM910.944 341.856C910.944 340.563 910.621 339.617 909.974 339.023C909.328 338.428 908.318 338.134 906.945 338.134H905.889V345.75H907.032C908.336 345.75 909.311 345.421 909.963 344.769C910.615 344.117 910.938 343.148 910.938 341.856H910.944Z" fill="#992F26"></path>
      <path d="M479.106 138.861C481.954 138.861 484.264 136.551 484.264 133.703C484.264 130.854 481.954 128.544 479.106 128.544C476.257 128.544 473.947 130.854 473.947 133.703C473.947 136.551 476.257 138.861 479.106 138.861Z" fill="#CF3A2E"></path>
      <path d="M555.602 200.258C558.451 200.258 560.76 197.948 560.76 195.1C560.76 192.251 558.451 189.941 555.602 189.941C552.753 189.941 550.444 192.251 550.444 195.1C550.444 197.948 552.753 200.258 555.602 200.258Z" fill="#CF3A2E"></path>
      <path d="M548.211 133.726C551.06 133.726 553.369 131.416 553.369 128.567C553.369 125.719 551.06 123.409 548.211 123.409C545.362 123.409 543.053 125.719 543.053 128.567C543.053 131.416 545.362 133.726 548.211 133.726Z" fill="#CF3A2E"></path>
      <path d="M571.573 130.281C574.422 130.281 576.731 127.972 576.731 125.123C576.731 122.274 574.422 119.965 571.573 119.965C568.724 119.965 566.415 122.274 566.415 125.123C566.415 127.972 568.724 130.281 571.573 130.281Z" fill="#CF3A2E"></path>
      <path d="M604.576 166.614C607.425 166.614 609.734 164.304 609.734 161.456C609.734 158.607 607.425 156.297 604.576 156.297C601.727 156.297 599.418 158.607 599.418 161.456C599.418 164.304 601.727 166.614 604.576 166.614Z" fill="#CF3A2E"></path>
      <path d="M638.572 167.756C641.421 167.756 643.731 165.447 643.731 162.598C643.731 159.749 641.421 157.44 638.572 157.44C635.723 157.44 633.414 159.749 633.414 162.598C633.414 165.447 635.723 167.756 638.572 167.756Z" fill="#CF3A2E"></path>
      <path d="M674.899 189.203C677.748 189.203 680.058 186.893 680.058 184.045C680.058 181.196 677.748 178.886 674.899 178.886C672.051 178.886 669.741 181.196 669.741 184.045C669.741 186.893 672.051 189.203 674.899 189.203Z" fill="#CF3A2E"></path>
      <path d="M702.467 259.439C705.316 259.439 707.626 257.13 707.626 254.281C707.626 251.432 705.316 249.123 702.467 249.123C699.619 249.123 697.309 251.432 697.309 254.281C697.309 257.13 699.619 259.439 702.467 259.439Z" fill="#CF3A2E"></path>
      <path d="M682.96 295.074C685.809 295.074 688.118 292.764 688.118 289.915C688.118 287.067 685.809 284.757 682.96 284.757C680.111 284.757 677.802 287.067 677.802 289.915C677.802 292.764 680.111 295.074 682.96 295.074Z" fill="#CF3A2E"></path>
      <path d="M481.511 207.851V201.319H482.896V206.732H485.331V207.851H481.517H481.511Z" fill="#CF3A2E"></path>
      <path d="M488.245 207.851H486.854L489.347 201.319H490.679L493.241 207.851H491.73L491.285 206.628H488.677L488.245 207.851ZM490.333 203.956C490.281 203.818 490.235 203.685 490.189 203.547C490.143 203.408 490.108 203.287 490.074 203.177C490.039 203.05 490.01 202.935 489.975 202.825H489.958C489.924 202.941 489.895 203.062 489.86 203.189C489.802 203.414 489.722 203.668 489.612 203.956L489.064 205.514H490.887L490.327 203.956H490.333Z" fill="#CF3A2E"></path>
      <path d="M499.56 207.851L497.021 204.222C496.83 203.962 496.68 203.737 496.571 203.547C496.507 203.443 496.444 203.339 496.392 203.241H496.375C496.38 203.327 496.386 203.42 496.392 203.518C496.398 203.604 496.403 203.697 496.409 203.8C496.409 203.904 496.409 204.008 496.409 204.112V207.851H495.151V201.319H496.542L498.896 204.706C498.994 204.851 499.086 204.983 499.167 205.116C499.248 205.243 499.323 205.358 499.386 205.462L499.583 205.808H499.6C499.594 205.71 499.588 205.601 499.583 205.485C499.577 205.387 499.571 205.278 499.565 205.156C499.565 205.035 499.565 204.908 499.565 204.781V201.331H500.823V207.862H499.56V207.851Z" fill="#CF3A2E"></path>
      <path d="M504.152 207.851H502.762L505.254 201.319H506.587L509.149 207.851H507.637L507.193 206.628H504.585L504.152 207.851ZM506.241 203.956C506.189 203.818 506.143 203.685 506.097 203.547C506.051 203.408 506.016 203.287 505.981 203.177C505.947 203.05 505.918 202.935 505.883 202.825H505.866C505.831 202.941 505.802 203.062 505.768 203.189C505.71 203.414 505.629 203.668 505.52 203.956L504.972 205.514H506.795L506.235 203.956H506.241Z" fill="#CF3A2E"></path>
      <path d="M512.184 202.162C512.184 202.329 512.161 202.502 512.114 202.67C512.068 202.837 512.011 202.999 511.941 203.149C511.872 203.299 511.797 203.449 511.71 203.581C511.624 203.714 511.549 203.829 511.474 203.922H510.672C510.753 203.812 510.828 203.668 510.914 203.501C511.001 203.333 511.035 203.16 511.035 202.993C511.035 202.866 511.007 202.768 510.955 202.693C510.903 202.618 510.845 202.548 510.776 202.479C510.707 202.41 510.649 202.335 510.597 202.248C510.545 202.162 510.516 202.047 510.516 201.902C510.516 201.695 510.591 201.527 510.735 201.395C510.885 201.268 511.064 201.204 511.278 201.204C511.514 201.204 511.722 201.291 511.901 201.458C512.08 201.625 512.172 201.862 512.172 202.162H512.184Z" fill="#CF3A2E"></path>
      <path d="M514.324 207.851V201.319H515.709V207.851H514.324Z" fill="#CF3A2E"></path>
      <path d="M526.337 207.28C526.251 207.361 526.141 207.436 526.002 207.516C525.864 207.597 525.708 207.666 525.529 207.736C525.35 207.805 525.154 207.857 524.941 207.903C524.727 207.943 524.502 207.966 524.266 207.966C523.712 207.966 523.221 207.874 522.806 207.689C522.385 207.505 522.039 207.251 521.756 206.939C521.473 206.628 521.265 206.264 521.121 205.855C520.983 205.445 520.908 205.018 520.908 204.574C520.908 204.129 520.977 203.702 521.121 203.299C521.265 202.895 521.479 202.537 521.762 202.225C522.044 201.914 522.402 201.666 522.823 201.481C523.245 201.296 523.729 201.198 524.277 201.198C524.71 201.198 525.079 201.245 525.391 201.331C525.702 201.418 525.985 201.55 526.239 201.718L525.622 202.727C525.437 202.612 525.241 202.514 525.027 202.45C524.814 202.387 524.56 202.347 524.26 202.347C523.96 202.347 523.683 202.404 523.446 202.52C523.21 202.635 523.014 202.791 522.858 202.993C522.702 203.195 522.581 203.426 522.5 203.691C522.419 203.956 522.379 204.239 522.379 204.539C522.379 204.839 522.419 205.145 522.494 205.422C522.575 205.699 522.691 205.935 522.846 206.143C523.002 206.351 523.198 206.512 523.441 206.634C523.677 206.755 523.96 206.812 524.277 206.812C524.629 206.812 524.924 206.76 525.154 206.662C525.385 206.559 525.587 206.443 525.76 206.316L526.331 207.286L526.337 207.28Z" fill="#CF3A2E"></path>
      <path d="M528.409 207.851V201.319H529.793V207.851H528.409Z" fill="#CF3A2E"></path>
      <path d="M535.021 202.456V207.851H533.636V202.456H531.83V201.319H536.815V202.456H535.021Z" fill="#CF3A2E"></path>
      <path d="M541.599 205.387V207.851H540.214V205.387L538.044 201.314H539.585L540.97 204.089H540.981L542.355 201.314H543.699L541.599 205.387Z" fill="#CF3A2E"></path>
      <path d="M505.855 109.175V106.348H502.929V109.175H501.544V102.644H502.929V105.211H505.855V102.644H507.239V109.175H505.855Z" fill="#CF3A2E"></path>
      <path d="M516.188 105.88C516.188 106.325 516.119 106.752 515.975 107.167C515.83 107.577 515.617 107.94 515.34 108.258C515.063 108.569 514.717 108.823 514.301 109.013C513.886 109.204 513.401 109.296 512.853 109.296C512.305 109.296 511.82 109.204 511.399 109.019C510.978 108.835 510.62 108.586 510.337 108.275C510.049 107.963 509.83 107.606 509.68 107.202C509.53 106.798 509.455 106.371 509.455 105.927C509.455 105.482 509.53 105.055 509.674 104.646C509.824 104.236 510.037 103.878 510.32 103.561C510.603 103.249 510.955 102.995 511.376 102.811C511.797 102.626 512.276 102.528 512.83 102.528C513.384 102.528 513.863 102.62 514.284 102.811C514.705 102.995 515.051 103.244 515.34 103.549C515.623 103.855 515.836 104.213 515.98 104.617C516.125 105.021 516.194 105.442 516.194 105.88H516.188ZM514.722 105.921C514.722 105.621 514.688 105.332 514.613 105.055C514.544 104.778 514.428 104.536 514.272 104.328C514.117 104.121 513.926 103.959 513.69 103.832C513.453 103.705 513.17 103.647 512.847 103.647C512.524 103.647 512.236 103.705 511.993 103.826C511.751 103.947 511.549 104.103 511.387 104.311C511.226 104.519 511.111 104.755 511.03 105.026C510.949 105.298 510.914 105.586 510.914 105.886C510.914 106.186 510.955 106.486 511.03 106.763C511.105 107.04 511.22 107.282 511.376 107.496C511.532 107.709 511.728 107.871 511.97 107.998C512.207 108.119 512.49 108.183 512.818 108.183C513.147 108.183 513.43 108.125 513.667 108.004C513.903 107.882 514.105 107.721 514.261 107.513C514.417 107.306 514.532 107.069 514.607 106.798C514.682 106.527 514.722 106.238 514.722 105.932V105.921Z" fill="#CF3A2E"></path>
      <path d="M519.512 103.486C519.512 103.653 519.489 103.826 519.442 103.994C519.396 104.161 519.339 104.322 519.269 104.473C519.2 104.623 519.125 104.773 519.039 104.905C518.952 105.038 518.877 105.153 518.802 105.246H518C518.081 105.136 518.156 104.992 518.242 104.824C518.329 104.657 518.364 104.484 518.364 104.317C518.364 104.19 518.335 104.092 518.283 104.017C518.231 103.942 518.173 103.872 518.104 103.803C518.035 103.734 517.977 103.659 517.925 103.572C517.873 103.486 517.844 103.37 517.844 103.226C517.844 103.019 517.919 102.851 518.063 102.718C518.214 102.592 518.392 102.528 518.606 102.528C518.842 102.528 519.05 102.615 519.229 102.782C519.408 102.949 519.5 103.186 519.5 103.486H519.512Z" fill="#CF3A2E"></path>
      <path d="M527.936 105.88C527.936 106.325 527.866 106.752 527.722 107.167C527.578 107.577 527.364 107.94 527.087 108.258C526.81 108.569 526.464 108.823 526.049 109.013C525.633 109.204 525.149 109.296 524.601 109.296C524.052 109.296 523.568 109.204 523.147 109.019C522.725 108.835 522.368 108.586 522.085 108.275C521.796 107.963 521.577 107.606 521.427 107.202C521.277 106.798 521.202 106.371 521.202 105.927C521.202 105.482 521.277 105.055 521.421 104.646C521.571 104.236 521.785 103.878 522.068 103.561C522.35 103.249 522.702 102.995 523.124 102.811C523.545 102.626 524.024 102.528 524.578 102.528C525.131 102.528 525.61 102.62 526.032 102.811C526.453 102.995 526.799 103.244 527.087 103.549C527.37 103.855 527.584 104.213 527.728 104.617C527.872 105.021 527.941 105.442 527.941 105.88H527.936ZM526.476 105.921C526.476 105.621 526.441 105.332 526.366 105.055C526.297 104.778 526.182 104.536 526.026 104.328C525.87 104.121 525.68 103.959 525.443 103.832C525.206 103.705 524.924 103.647 524.601 103.647C524.277 103.647 523.989 103.705 523.747 103.826C523.504 103.947 523.302 104.103 523.141 104.311C522.979 104.519 522.864 104.755 522.783 105.026C522.702 105.298 522.668 105.586 522.668 105.886C522.668 106.186 522.708 106.486 522.783 106.763C522.858 107.04 522.973 107.282 523.129 107.496C523.285 107.709 523.481 107.871 523.724 107.998C523.96 108.119 524.243 108.183 524.572 108.183C524.901 108.183 525.183 108.125 525.42 108.004C525.656 107.882 525.858 107.721 526.014 107.513C526.17 107.306 526.285 107.069 526.36 106.798C526.435 106.527 526.476 106.238 526.476 105.932V105.921Z" fill="#CF3A2E"></path>
      <path d="M530.174 109.175V102.644H531.559V108.056H533.994V109.175H530.18H530.174Z" fill="#CF3A2E"></path>
      <path d="M536.175 109.175V102.644H539.942V103.78H537.536V105.263H539.654V106.33H537.536V108.038H540.006V109.175H536.169H536.175Z" fill="#CF3A2E"></path>
      <path d="M546.641 109.175V106.348H543.716V109.175H542.331V102.644H543.716V105.211H546.641V102.644H548.026V109.175H546.641Z" fill="#CF3A2E"></path>
      <path d="M556.046 106.515C556.046 107.409 555.821 108.096 555.377 108.575C554.932 109.054 554.263 109.29 553.369 109.29C552.423 109.29 551.719 109.065 551.263 108.609C550.807 108.154 550.582 107.502 550.582 106.642V102.638H551.967V106.521C551.967 107.08 552.076 107.496 552.296 107.756C552.515 108.015 552.884 108.148 553.398 108.148C553.911 108.148 554.24 108.009 554.454 107.738C554.667 107.461 554.771 107.086 554.771 106.613V102.638H556.046V106.509V106.515Z" fill="#CF3A2E"></path>
      <path d="M559.364 109.175H557.973L560.466 102.644H561.799L564.36 109.175H562.849L562.404 107.952H559.796L559.364 109.175ZM561.452 105.28C561.4 105.142 561.354 105.009 561.308 104.871C561.262 104.732 561.227 104.611 561.193 104.501C561.158 104.375 561.129 104.259 561.095 104.149H561.077C561.043 104.265 561.014 104.386 560.979 104.513C560.922 104.738 560.841 104.992 560.731 105.28L560.183 106.838H562.006L561.447 105.28H561.452Z" fill="#CF3A2E"></path>
      <path d="M585.836 121.626H587.365L584.959 124.656L587.469 128.158H585.83L583.603 125.007V128.158H582.218V121.626H583.603V124.482L585.83 121.626H585.836Z" fill="#CF3A2E"></path>
      <path d="M590.111 128.158H588.721L591.213 121.626H592.546L595.108 128.158H593.596L593.152 126.935H590.544L590.111 128.158ZM592.2 124.263C592.148 124.125 592.102 123.992 592.056 123.854C592.01 123.715 591.975 123.594 591.94 123.484C591.906 123.357 591.877 123.242 591.842 123.132H591.825C591.79 123.248 591.761 123.369 591.727 123.496C591.669 123.721 591.588 123.975 591.479 124.263L590.931 125.821H592.754L592.194 124.263H592.2Z" fill="#CF3A2E"></path>
      <path d="M597.053 128.158V121.626H598.437V127.038H600.872V128.158H597.059H597.053Z" fill="#CF3A2E"></path>
      <path d="M603.786 128.158H602.396L604.888 121.626H606.221L608.783 128.158H607.271L606.827 126.935H604.219L603.786 128.158ZM605.875 124.263C605.823 124.125 605.777 123.992 605.73 123.854C605.684 123.715 605.65 123.594 605.615 123.484C605.58 123.357 605.552 123.242 605.517 123.132H605.5C605.465 123.248 605.436 123.369 605.402 123.496C605.344 123.721 605.263 123.975 605.153 124.263L604.605 125.821H606.429L605.869 124.263H605.875Z" fill="#CF3A2E"></path>
      <path d="M616.133 125.504C616.133 126.398 615.908 127.085 615.464 127.564C615.02 128.042 614.351 128.279 613.456 128.279C612.51 128.279 611.806 128.054 611.35 127.598C610.894 127.142 610.669 126.49 610.669 125.631V121.626H612.054V125.509C612.054 126.069 612.164 126.485 612.383 126.744C612.602 127.004 612.972 127.137 613.485 127.137C613.999 127.137 614.328 126.998 614.541 126.727C614.754 126.45 614.858 126.075 614.858 125.602V121.626H616.133V125.498V125.504Z" fill="#CF3A2E"></path>
      <path d="M623.352 123.686C623.352 124.038 623.288 124.35 623.167 124.621C623.046 124.892 622.861 125.111 622.63 125.29C622.4 125.469 622.117 125.608 621.788 125.7C621.459 125.792 621.096 125.838 620.686 125.838H620.086V128.164H618.701V121.632H620.848C621.2 121.632 621.528 121.672 621.84 121.753C622.152 121.834 622.411 121.961 622.636 122.128C622.861 122.296 623.034 122.515 623.161 122.769C623.288 123.028 623.352 123.334 623.352 123.686ZM621.967 123.715C621.967 123.38 621.869 123.132 621.678 122.959C621.488 122.786 621.171 122.7 620.738 122.7H620.086V124.788H620.709C621.153 124.788 621.471 124.702 621.673 124.523C621.869 124.35 621.973 124.078 621.973 123.715H621.967Z" fill="#CF3A2E"></path>
      <path d="M626.225 128.158H624.834L627.327 121.626H628.66L631.222 128.158H629.71L629.266 126.935H626.658L626.225 128.158ZM628.314 124.263C628.262 124.125 628.216 123.992 628.169 123.854C628.123 123.715 628.089 123.594 628.054 123.484C628.019 123.357 627.991 123.242 627.956 123.132H627.939C627.904 123.248 627.875 123.369 627.841 123.496C627.783 123.721 627.702 123.975 627.592 124.263L627.044 125.821H628.868L628.308 124.263H628.314Z" fill="#CF3A2E"></path>
      <path d="M637.782 123.686C637.782 124.038 637.718 124.35 637.597 124.621C637.476 124.892 637.291 125.111 637.061 125.29C636.83 125.469 636.547 125.608 636.218 125.7C635.889 125.792 635.526 125.838 635.116 125.838H634.516V128.164H633.131V121.632H635.278C635.63 121.632 635.959 121.672 636.27 121.753C636.582 121.834 636.841 121.961 637.066 122.128C637.291 122.296 637.465 122.515 637.591 122.769C637.718 123.028 637.782 123.334 637.782 123.686ZM636.397 123.715C636.397 123.38 636.299 123.132 636.109 122.959C635.918 122.786 635.601 122.7 635.168 122.7H634.516V124.788H635.139C635.584 124.788 635.901 124.702 636.103 124.523C636.299 124.35 636.403 124.078 636.403 123.715H636.397Z" fill="#CF3A2E"></path>
      <path d="M640.655 128.158H639.265L641.757 121.626H643.09L645.652 128.158H644.14L643.696 126.935H641.088L640.655 128.158ZM642.744 124.263C642.692 124.125 642.646 123.992 642.6 123.854C642.553 123.715 642.519 123.594 642.484 123.484C642.45 123.357 642.421 123.242 642.386 123.132H642.369C642.334 123.248 642.305 123.369 642.271 123.496C642.213 123.721 642.132 123.975 642.023 124.263L641.474 125.821H643.298L642.738 124.263H642.744Z" fill="#CF3A2E"></path>
      <path d="M550.992 153.349H552.521L550.115 156.378L552.625 159.88H550.986L548.759 156.73V159.88H547.374V153.349H548.759V156.205L550.986 153.349H550.992Z" fill="#CF3A2E"></path>
      <path d="M555.267 159.88H553.877L556.37 153.349H557.702L560.264 159.88H558.752L558.308 158.657H555.7L555.267 159.88ZM557.356 155.992C557.304 155.853 557.258 155.72 557.212 155.582C557.166 155.443 557.131 155.322 557.097 155.213C557.062 155.086 557.033 154.97 556.998 154.861H556.981C556.947 154.976 556.918 155.097 556.883 155.224C556.825 155.449 556.745 155.703 556.635 155.992L556.087 157.549H557.91L557.35 155.992H557.356Z" fill="#CF3A2E"></path>
      <path d="M566.824 155.409C566.824 155.761 566.761 156.072 566.64 156.344C566.519 156.615 566.334 156.834 566.103 157.013C565.872 157.192 565.59 157.33 565.261 157.422C564.932 157.515 564.568 157.561 564.159 157.561H563.559V159.886H562.174V153.355H564.32C564.672 153.355 565.001 153.395 565.313 153.476C565.624 153.557 565.884 153.684 566.109 153.851C566.334 154.018 566.507 154.238 566.634 154.491C566.761 154.751 566.824 155.057 566.824 155.409ZM565.44 155.438C565.44 155.103 565.341 154.855 565.151 154.682C564.961 154.509 564.643 154.422 564.211 154.422H563.559V156.511H564.182C564.626 156.511 564.943 156.424 565.145 156.245C565.341 156.072 565.445 155.801 565.445 155.438H565.44Z" fill="#CF3A2E"></path>
      <path d="M569.698 159.88H568.307L570.8 153.349H572.133L574.694 159.88H573.183L572.738 158.657H570.13L569.698 159.88ZM571.786 155.992C571.734 155.853 571.688 155.72 571.642 155.582C571.596 155.443 571.561 155.322 571.527 155.213C571.492 155.086 571.463 154.97 571.429 154.861H571.411C571.377 154.976 571.348 155.097 571.313 155.224C571.256 155.449 571.175 155.703 571.065 155.992L570.517 157.549H572.34L571.781 155.992H571.786Z" fill="#CF3A2E"></path>
      <path d="M576.645 159.88V153.349H578.029V158.761H580.464V159.88H576.65H576.645Z" fill="#CF3A2E"></path>
      <path d="M588.069 157.226C588.069 158.121 587.844 158.807 587.4 159.286C586.955 159.765 586.286 160.002 585.392 160.002C584.446 160.002 583.742 159.777 583.286 159.321C582.83 158.865 582.605 158.213 582.605 157.353V153.349H583.99V157.232C583.99 157.792 584.099 158.207 584.319 158.467C584.538 158.726 584.907 158.859 585.421 158.859C585.934 158.859 586.263 158.721 586.477 158.45C586.69 158.173 586.794 157.798 586.794 157.324V153.349H588.069V157.221V157.226Z" fill="#CF3A2E"></path>
      <path d="M591.387 159.88H589.996L592.489 153.349H593.822L596.383 159.88H594.872L594.427 158.657H591.819L591.387 159.88ZM593.475 155.992C593.423 155.853 593.377 155.72 593.331 155.582C593.285 155.443 593.25 155.322 593.216 155.213C593.181 155.086 593.152 154.97 593.118 154.861H593.1C593.066 154.976 593.037 155.097 593.002 155.224C592.944 155.449 592.864 155.703 592.754 155.992L592.206 157.549H594.029L593.47 155.992H593.475Z" fill="#CF3A2E"></path>
      <path d="M653.303 157.59H654.832L652.426 160.619L654.936 164.121H653.297L651.07 160.971V164.121H649.685V157.59H651.07V160.446L653.297 157.59H653.303Z" fill="#CF3A2E"></path>
      <path d="M657.579 164.127H656.188L658.681 157.596H660.013L662.575 164.127H661.064L660.619 162.904H658.011L657.579 164.127ZM659.667 160.232C659.615 160.094 659.569 159.961 659.523 159.823C659.477 159.684 659.442 159.563 659.408 159.453C659.373 159.327 659.344 159.211 659.309 159.102H659.292C659.258 159.217 659.229 159.338 659.194 159.465C659.136 159.69 659.056 159.944 658.946 160.232L658.398 161.79H660.221L659.661 160.232H659.667Z" fill="#CF3A2E"></path>
      <path d="M668.812 164.127V161.3H665.887V164.127H664.502V157.596H665.887V160.163H668.812V157.596H670.197V164.127H668.812Z" fill="#CF3A2E"></path>
      <path d="M678.217 161.467C678.217 162.362 677.992 163.048 677.548 163.527C677.103 164.006 676.434 164.242 675.54 164.242C674.594 164.242 673.89 164.017 673.434 163.562C672.978 163.106 672.753 162.454 672.753 161.594V157.59H674.138V161.473C674.138 162.033 674.247 162.448 674.467 162.708C674.686 162.967 675.055 163.1 675.569 163.1C676.082 163.1 676.411 162.962 676.624 162.69C676.838 162.413 676.942 162.038 676.942 161.565V157.59H678.217V161.461V161.467Z" fill="#CF3A2E"></path>
      <path d="M680.825 164.127V157.596H682.21V163.008H684.645V164.127H680.831H680.825Z" fill="#CF3A2E"></path>
      <path d="M692.255 161.467C692.255 162.362 692.03 163.048 691.586 163.527C691.141 164.006 690.472 164.242 689.578 164.242C688.632 164.242 687.928 164.017 687.472 163.562C687.016 163.106 686.791 162.454 686.791 161.594V157.59H688.176V161.473C688.176 162.033 688.285 162.448 688.505 162.708C688.724 162.967 689.093 163.1 689.607 163.1C690.12 163.1 690.449 162.962 690.663 162.69C690.876 162.413 690.98 162.038 690.98 161.565V157.59H692.255V161.461V161.467Z" fill="#CF3A2E"></path>
      <path d="M694.903 164.127V157.596H696.288V164.127H694.903Z" fill="#CF3A2E"></path>
      <path d="M690.276 186.837V184.01H687.351V186.837H685.966V180.306H687.351V182.873H690.276V180.306H691.661V186.837H690.276Z" fill="#CF3A2E"></path>
      <path d="M694.984 186.837H693.594L696.086 180.306H697.419L699.981 186.837H698.469L698.025 185.614H695.417L694.984 186.837ZM697.073 182.942C697.021 182.804 696.975 182.671 696.929 182.533C696.883 182.394 696.848 182.273 696.813 182.164C696.779 182.037 696.75 181.921 696.715 181.812H696.698C696.663 181.927 696.634 182.048 696.6 182.175C696.542 182.4 696.461 182.654 696.352 182.942L695.804 184.5H697.627L697.067 182.942H697.073Z" fill="#CF3A2E"></path>
      <path d="M706.305 186.837L703.766 183.208C703.576 182.948 703.425 182.723 703.316 182.533C703.252 182.429 703.189 182.325 703.137 182.227H703.12C703.125 182.314 703.131 182.406 703.137 182.504C703.143 182.591 703.149 182.683 703.154 182.787C703.154 182.891 703.154 182.994 703.154 183.098V186.837H701.896V180.306H703.287L705.641 183.693C705.739 183.837 705.832 183.97 705.912 184.102C705.993 184.229 706.068 184.345 706.132 184.448L706.328 184.795H706.345C706.339 184.697 706.334 184.587 706.328 184.471C706.322 184.373 706.316 184.264 706.31 184.143C706.31 184.021 706.31 183.895 706.31 183.768V180.317H707.568V186.849H706.305V186.837Z" fill="#CF3A2E"></path>
      <path d="M710.891 186.837H709.501L711.994 180.306H713.326L715.888 186.837H714.377L713.932 185.614H711.324L710.891 186.837ZM712.98 182.942C712.928 182.804 712.882 182.671 712.836 182.533C712.79 182.394 712.755 182.273 712.721 182.164C712.686 182.037 712.657 181.921 712.622 181.812H712.605C712.571 181.927 712.542 182.048 712.507 182.175C712.449 182.4 712.369 182.654 712.259 182.942L711.711 184.5H713.534L712.974 182.942H712.98Z" fill="#CF3A2E"></path>
      <path d="M699.514 178.067H693.784V179.267H699.514V178.067Z" fill="#CF3A2E"></path>
      <path d="M492.624 199.156H487.235V200.356H492.624V199.156Z" fill="#CF3A2E"></path>
      <path d="M704.262 271.302H702.987L702.047 267.684C702.012 267.552 701.983 267.419 701.949 267.275C701.914 267.13 701.885 266.998 701.862 266.882C701.833 266.744 701.81 266.605 701.781 266.473H701.764C701.735 266.605 701.706 266.738 701.677 266.876C701.643 266.992 701.608 267.125 701.574 267.275C701.539 267.419 701.504 267.563 701.47 267.69L700.437 271.308H699.162L697.408 264.776H698.879L699.704 268.192C699.739 268.325 699.768 268.457 699.796 268.602C699.825 268.74 699.848 268.873 699.871 268.988C699.895 269.127 699.918 269.259 699.941 269.392H699.958C699.993 269.254 700.021 269.115 700.045 268.971C700.073 268.85 700.102 268.711 700.131 268.567C700.166 268.423 700.195 268.284 700.229 268.157L701.123 264.782H702.485L703.356 268.134C703.426 268.423 703.489 268.694 703.541 268.959C703.564 269.104 703.593 269.242 703.622 269.381H703.639C703.656 269.248 703.68 269.115 703.708 268.977C703.726 268.861 703.755 268.729 703.783 268.584C703.812 268.44 703.841 268.302 703.876 268.175L704.718 264.782H706.039L704.257 271.313L704.262 271.302Z" fill="#CF3A2E"></path>
      <path d="M708.722 271.302H707.332L709.824 264.771H711.157L713.719 271.302H712.207L711.763 270.079H709.155L708.722 271.302ZM710.811 267.407C710.759 267.269 710.713 267.136 710.666 266.998C710.62 266.859 710.586 266.738 710.551 266.628C710.517 266.501 710.488 266.386 710.453 266.276H710.436C710.401 266.392 710.372 266.513 710.338 266.64C710.28 266.865 710.199 267.119 710.09 267.407L709.541 268.965H711.365L710.805 267.407H710.811Z" fill="#CF3A2E"></path>
      <path d="M715.704 271.302V264.771H717.088V271.302H715.704Z" fill="#CF3A2E"></path>
      <path d="M722.541 271.302L721.433 267.915C721.399 267.811 721.37 267.702 721.341 267.592C721.312 267.482 721.283 267.378 721.26 267.286C721.231 267.177 721.203 267.073 721.174 266.975H721.156C721.151 267.078 721.139 267.188 721.128 267.298C721.116 267.39 721.104 267.488 721.099 267.604C721.093 267.713 721.081 267.829 721.07 267.938L720.649 271.302H719.402L720.302 264.771H721.647L722.962 268.804C723.003 268.931 723.043 269.058 723.078 269.184C723.118 269.317 723.153 269.438 723.187 269.548C723.222 269.681 723.257 269.808 723.297 269.929H723.314C723.349 269.808 723.384 269.675 723.424 269.548C723.459 269.438 723.493 269.317 723.534 269.184C723.574 269.052 723.614 268.925 723.66 268.804L725.016 264.771H726.349L727.249 271.302H725.836L725.415 267.927C725.403 267.817 725.386 267.702 725.374 267.586C725.363 267.471 725.345 267.367 725.334 267.275C725.322 267.171 725.311 267.067 725.305 266.969H725.288C725.259 267.067 725.236 267.171 725.207 267.275C725.178 267.367 725.149 267.465 725.12 267.575C725.086 267.684 725.057 267.794 725.022 267.904L723.914 271.296H722.553L722.541 271.302Z" fill="#CF3A2E"></path>
      <path d="M729.436 271.302V264.771H733.204V265.907H730.798V267.39H732.915V268.457H730.798V270.165H733.267V271.302H729.43H729.436Z" fill="#CF3A2E"></path>
      <path d="M736.325 271.302H734.935L737.427 264.771H738.76L741.322 271.302H739.81L739.366 270.079H736.758L736.325 271.302ZM738.414 267.407C738.362 267.269 738.316 267.136 738.27 266.998C738.223 266.859 738.189 266.738 738.154 266.628C738.12 266.501 738.091 266.386 738.056 266.276H738.039C738.004 266.392 737.975 266.513 737.941 266.64C737.883 266.865 737.802 267.119 737.693 267.407L737.144 268.965H738.968L738.408 267.407H738.414Z" fill="#CF3A2E"></path>
      <path d="M742.938 269.063V267.996H745.176V269.063H742.938Z" fill="#CF3A2E"></path>
      <path d="M751.079 264.771H752.608L750.202 267.8L752.712 271.302H751.073L748.846 268.152V271.302H747.461V264.771H748.846V267.627L751.073 264.771H751.079Z" fill="#CF3A2E"></path>
      <path d="M760.974 268.007C760.974 268.452 760.905 268.879 760.761 269.294C760.616 269.704 760.403 270.067 760.126 270.385C759.849 270.696 759.503 270.95 759.087 271.14C758.672 271.331 758.187 271.423 757.639 271.423C757.091 271.423 756.606 271.331 756.185 271.146C755.764 270.962 755.406 270.713 755.124 270.402C754.841 270.09 754.616 269.733 754.466 269.329C754.316 268.925 754.241 268.498 754.241 268.054C754.241 267.609 754.316 267.182 754.46 266.773C754.604 266.363 754.823 266.005 755.106 265.688C755.389 265.371 755.741 265.123 756.162 264.938C756.583 264.753 757.062 264.655 757.616 264.655C758.17 264.655 758.649 264.747 759.07 264.938C759.491 265.123 759.837 265.371 760.126 265.676C760.409 265.982 760.622 266.34 760.766 266.744C760.911 267.148 760.98 267.569 760.98 268.007H760.974ZM759.514 268.048C759.514 267.748 759.48 267.459 759.405 267.182C759.33 266.905 759.22 266.663 759.064 266.455C758.909 266.248 758.718 266.086 758.482 265.959C758.245 265.832 757.962 265.775 757.639 265.775C757.316 265.775 757.028 265.832 756.785 265.953C756.543 266.069 756.341 266.23 756.185 266.438C756.024 266.646 755.908 266.882 755.827 267.154C755.747 267.425 755.712 267.713 755.712 268.013C755.712 268.313 755.752 268.613 755.827 268.89C755.902 269.167 756.018 269.41 756.174 269.623C756.329 269.831 756.526 269.998 756.768 270.125C757.004 270.246 757.287 270.31 757.616 270.31C757.945 270.31 758.228 270.252 758.464 270.131C758.701 270.01 758.903 269.848 759.059 269.64C759.214 269.433 759.33 269.196 759.405 268.925C759.48 268.654 759.52 268.365 759.52 268.059L759.514 268.048Z" fill="#CF3A2E"></path>
      <path d="M767.494 271.302V268.475H764.568V271.302H763.184V264.771H764.568V267.338H767.494V264.771H768.878V271.302H767.494Z" fill="#CF3A2E"></path>
      <path d="M772.202 271.302H770.812L773.304 264.771H774.637L777.199 271.302H775.687L775.243 270.079H772.635L772.202 271.302ZM774.291 267.407C774.239 267.269 774.193 267.136 774.146 266.998C774.106 266.865 774.066 266.738 774.031 266.628C773.996 266.501 773.968 266.386 773.933 266.276H773.916C773.881 266.392 773.852 266.513 773.818 266.64C773.76 266.865 773.679 267.119 773.575 267.407L773.027 268.965H774.85L774.291 267.407Z" fill="#CF3A2E"></path>
      <path d="M779.149 271.302V264.771H780.534V270.183H782.969V271.302H779.155H779.149Z" fill="#CF3A2E"></path>
      <path d="M785.876 271.302H784.486L786.978 264.771H788.311L790.873 271.302H789.361L788.923 270.079H786.315L785.882 271.302H785.876ZM787.965 267.407C787.913 267.269 787.867 267.136 787.821 266.998C787.78 266.865 787.74 266.738 787.705 266.628C787.671 266.501 787.642 266.386 787.607 266.276H787.59C787.555 266.392 787.527 266.513 787.492 266.64C787.434 266.865 787.353 267.119 787.244 267.407L786.696 268.965H788.519L787.959 267.407H787.965Z" fill="#CF3A2E"></path>
      <path d="M654.076 303.186H655.605L653.199 306.215L655.709 309.718H654.07L651.843 306.567V309.718H650.458V303.186H651.843V306.042L654.07 303.186H654.076Z" fill="#CF3A2E"></path>
      <path d="M658.351 309.718H656.961L659.454 303.186H660.786L663.348 309.718H661.836L661.392 308.494H658.784L658.351 309.718ZM660.44 305.823C660.388 305.685 660.342 305.552 660.296 305.413C660.25 305.275 660.215 305.154 660.181 305.044C660.146 304.917 660.117 304.802 660.082 304.692H660.065C660.03 304.807 660.002 304.929 659.967 305.056C659.909 305.281 659.829 305.534 659.719 305.823L659.171 307.381H660.994L660.434 305.823H660.44Z" fill="#CF3A2E"></path>
      <path d="M665.339 309.718V303.186H666.724V309.718H665.339Z" fill="#CF3A2E"></path>
      <path d="M669.458 309.718V303.186H670.843V308.598H673.278V309.718H669.464H669.458Z" fill="#CF3A2E"></path>
      <path d="M680.883 307.063C680.883 307.958 680.657 308.644 680.213 309.123C679.769 309.602 679.1 309.839 678.205 309.839C677.259 309.839 676.555 309.614 676.099 309.158C675.643 308.702 675.418 308.05 675.418 307.19V303.186H676.803V307.069C676.803 307.629 676.913 308.044 677.132 308.304C677.351 308.564 677.721 308.696 678.234 308.696C678.748 308.696 679.077 308.558 679.29 308.287C679.504 308.01 679.607 307.635 679.607 307.162V303.186H680.883V307.058V307.063Z" fill="#CF3A2E"></path>
      <path d="M684.2 309.718H682.81L685.302 303.186H686.635L689.197 309.718H687.685L687.241 308.494H684.633L684.2 309.718ZM686.289 305.823C686.237 305.685 686.191 305.552 686.145 305.413C686.098 305.275 686.064 305.154 686.029 305.044C685.995 304.917 685.966 304.802 685.931 304.692H685.914C685.879 304.807 685.85 304.929 685.816 305.056C685.758 305.281 685.677 305.534 685.568 305.823L685.019 307.381H686.843L686.283 305.823H686.289Z" fill="#CF3A2E"></path>
      <path d="M690.812 307.485V306.417H693.051V307.485H690.812Z" fill="#CF3A2E"></path>
      <path d="M698.954 303.186H700.483L698.077 306.215L700.587 309.718H698.948L696.721 306.567V309.718H695.336V303.186H696.721V306.042L698.948 303.186H698.954Z" fill="#CF3A2E"></path>
      <path d="M708.849 306.423C708.849 306.867 708.78 307.294 708.636 307.71C708.491 308.119 708.278 308.483 708.001 308.8C707.724 309.112 707.378 309.366 706.962 309.556C706.547 309.747 706.062 309.839 705.514 309.839C704.966 309.839 704.481 309.747 704.06 309.562C703.639 309.377 703.281 309.129 702.999 308.818C702.71 308.506 702.491 308.148 702.341 307.744C702.191 307.34 702.116 306.914 702.116 306.469C702.116 306.025 702.191 305.598 702.335 305.188C702.485 304.779 702.698 304.421 702.981 304.104C703.264 303.792 703.616 303.538 704.037 303.354C704.458 303.169 704.937 303.071 705.491 303.071C706.045 303.071 706.524 303.163 706.945 303.354C707.366 303.538 707.712 303.786 708.001 304.092C708.284 304.398 708.497 304.756 708.641 305.159C708.786 305.563 708.855 305.985 708.855 306.423H708.849ZM707.389 306.463C707.389 306.163 707.355 305.875 707.28 305.598C707.21 305.321 707.095 305.079 706.939 304.871C706.784 304.663 706.593 304.502 706.357 304.375C706.12 304.248 705.837 304.19 705.514 304.19C705.191 304.19 704.903 304.248 704.66 304.369C704.418 304.49 704.216 304.646 704.054 304.854C703.893 305.061 703.777 305.298 703.697 305.569C703.616 305.84 703.581 306.129 703.581 306.429C703.581 306.729 703.622 307.029 703.697 307.306C703.772 307.583 703.887 307.825 704.043 308.039C704.199 308.252 704.395 308.414 704.637 308.541C704.874 308.662 705.156 308.725 705.485 308.725C705.814 308.725 706.097 308.668 706.333 308.546C706.57 308.425 706.772 308.264 706.928 308.056C707.084 307.848 707.199 307.612 707.274 307.34C707.349 307.069 707.389 306.781 707.389 306.475V306.463Z" fill="#CF3A2E"></path>
      <path d="M715.461 309.718L712.923 306.088C712.732 305.829 712.582 305.604 712.473 305.413C712.409 305.309 712.346 305.206 712.294 305.108H712.276C712.282 305.194 712.288 305.286 712.294 305.384C712.299 305.471 712.305 305.563 712.311 305.667C712.311 305.771 712.311 305.875 712.311 305.979V309.718H711.053V303.186H712.444L714.798 306.573C714.896 306.717 714.988 306.85 715.069 306.983C715.15 307.11 715.225 307.225 715.288 307.329L715.484 307.675H715.502C715.496 307.577 715.49 307.467 715.484 307.352C715.479 307.254 715.473 307.144 715.467 307.023C715.467 306.902 715.467 306.775 715.467 306.648V303.198H716.725V309.729H715.461V309.718Z" fill="#CF3A2E"></path>
      <path d="M720.048 309.718H718.658L721.15 303.186H722.483L725.045 309.718H723.533L723.089 308.494H720.481L720.048 309.718ZM722.137 305.823C722.085 305.684 722.039 305.552 721.993 305.413C721.947 305.275 721.912 305.154 721.877 305.044C721.843 304.917 721.814 304.802 721.779 304.692H721.762C721.727 304.807 721.698 304.929 721.664 305.055C721.606 305.281 721.525 305.534 721.416 305.823L720.868 307.381H722.691L722.131 305.823H722.137Z" fill="#CF3A2E"></path>
    </g>
  </g>
  <defs>
    <clipPath id="clip0_35_5082">
      <rect width="1287" height="410" rx="30" fill="white"></rect>
    </clipPath>
    <clipPath id="clip1_35_5082">
      <rect width="1500.16" height="467.358" fill="white" transform="translate(-106.581 -17)"></rect>
    </clipPath>
  </defs>
</svg>
