<?xml version="1.0" encoding="UTF-8"?>
<svg width="20px" height="20px" viewBox="0 0 20 20" version="1.1" xmlns="http://www.w3.org/2000/svg" xmlns:xlink="http://www.w3.org/1999/xlink">
    <title>Toys, Drones &amp; Maker</title>
    <defs>
        <rect id="path-1" x="0" y="0" width="20" height="20"></rect>
    </defs>
    <g id="Mockups" stroke="none" stroke-width="1" fill="none" fill-rule="evenodd">
        <g id="V2_Homepage_3-Rows" transform="translate(-120, -762)">
            <g id="category" transform="translate(90, 155)">
                <g id="Toys,-Drones-&amp;-Maker" transform="translate(30, 607)">
                    <mask id="mask-2" fill="white">
                        <use xlink:href="#path-1"></use>
                    </mask>
                    <g id="Mask"></g>
                    <g id="drone-front" mask="url(#mask-2)" fill="#212121" fill-rule="nonzero">
                        <g transform="translate(-2, 4.625)" id="Shape">
                            <path d="M21.9375,1.125 L18,1.125 L18,0.5625 C18,0.253125429 17.7468746,0 17.4375,0 C17.1281254,0 16.875,0.253125429 16.875,0.5625 L16.875,1.125 L12.9375,1.125 C12.6281254,1.125 12.375,1.37812543 12.375,1.6875 C12.375,1.99687457 12.6281254,2.25 12.9375,2.25 L16.875,2.25 L16.875,5.01574212 C15.6972656,4.37695312 13.4964842,3.375 11.25,3.375 C9.00351584,3.375 6.80273438,4.37695312 5.625,5.01679677 L5.625,2.25 L9.5625,2.25 C9.87187457,2.25 10.125,1.99687457 10.125,1.6875 C10.125,1.37812543 9.87187457,1.125 9.5625,1.125 L5.625,1.125 L5.625,0.5625 C5.625,0.251578331 5.37342167,0.00210928917 5.0625,0.00210928917 C4.75157833,0.00210928917 4.5,0.253125429 4.5,0.5625 L4.5,1.125 L0.5625,1.125 C0.251859426,1.125 0,1.37812543 0,1.6875 C0,1.99687457 0.251859426,2.25 0.5625,2.25 L4.5,2.25 L4.5,6.1875 C4.5,6.80765676 5.0041405,7.3125 5.625,7.3125 L5.95553935,7.3125 C5.34726584,8.33906293 5.0625,9.50273395 5.0625,10.6875 C5.0625,10.9984217 5.31671494,11.25 5.62746119,11.25 C5.93820745,11.25 6.1875,10.9968746 6.1875,10.6875 C6.1875,9.47496128 6.59039086,8.29195261 7.30300766,7.3125 L7.94847643,7.3125 L9.75902331,8.86429739 C9.86132812,8.95078146 9.99140668,9 10.125,9 L12.375,9 C12.509016,9 12.6386719,8.95222235 12.7409767,8.86433172 L14.5511717,7.3125 L15.196641,7.3125 C15.9082031,8.29335916 16.3125,9.47460938 16.3125,10.6875 C16.3125,10.9984217 16.5605625,11.25 16.8714842,11.25 C17.1824058,11.25 17.4375,10.9968746 17.4375,10.6875 C17.4375,9.50343776 17.1223941,8.33835912 16.5445315,7.3125 L16.875,7.3125 C17.4958595,7.3125 18,6.80765676 18,6.1875 L18,2.25 L21.9375,2.25 C22.2468746,2.25 22.5,1.99687457 22.5,1.6875 C22.5,1.37812543 22.2468746,1.125 21.9375,1.125 Z M14.34375,6.1875 C14.209734,6.1875 14.0800781,6.23527765 13.9777733,6.32316828 L12.1675783,7.875 L10.3324217,7.875 L8.52187479,6.32320261 C8.41992188,6.23671854 8.28984386,6.1875 8.15625,6.1875 L5.83945334,6.1875 C6.75351584,5.64609396 9.03867209,4.5 11.25,4.5 C13.4613279,4.5 15.7148438,5.64468741 16.6605467,6.1875 L14.34375,6.1875 Z"></path>
                        </g>
                    </g>
                </g>
            </g>
        </g>
    </g>
</svg>